<?xml version="1.0" standalone="no"?>
<!DOCTYPE svg PUBLIC "-//W3C//DTD SVG 20010904//EN"
 "http://www.w3.org/TR/2001/REC-SVG-20010904/DTD/svg10.dtd">
<svg version="1.0" xmlns="http://www.w3.org/2000/svg"
 width="128.000000pt" height="128.000000pt" viewBox="0 0 128.000000 128.000000"
 preserveAspectRatio="xMidYMid meet">
<metadata>
Created by potrace 1.14, written by Peter Selinger 2001-2017
</metadata>
<g transform="translate(0.000000,128.000000) scale(0.100000,-0.100000)"
fill="#000000" stroke="none">
<path d="M140 952 c0 -4 20 -32 45 -62 25 -30 59 -75 75 -99 l30 -45 0 -244
c0 -148 -4 -251 -10 -263 -6 -10 -29 -28 -50 -39 -22 -11 -40 -23 -40 -25 0
-3 44 -5 98 -5 l97 0 13 43 c7 23 26 59 43 79 l29 37 0 191 c0 183 -1 192 -20
197 -14 4 -20 14 -20 34 0 25 4 29 28 29 19 0 35 10 55 35 l28 35 -79 0 c-119
0 -186 17 -259 66 -35 23 -63 39 -63 36z"/>
<path d="M1115 940 c-10 -11 -43 -32 -73 -47 -49 -24 -70 -28 -179 -31 l-123
-4 35 -39 c19 -22 35 -49 35 -62 0 -12 12 -47 27 -77 21 -44 27 -74 31 -151 4
-85 1 -102 -21 -160 -14 -35 -29 -77 -33 -94 -7 -33 -41 -75 -59 -75 -6 0 -20
-7 -31 -15 -17 -13 3 -14 179 -15 183 0 234 7 175 25 -13 4 -35 19 -50 33
l-28 26 0 247 0 247 33 45 c17 25 51 68 75 97 23 28 42 56 42 61 0 15 -16 10
-35 -11z"/>
<path d="M510 920 c0 -5 5 -10 11 -10 5 0 7 5 4 10 -3 6 -8 10 -11 10 -2 0 -4
-4 -4 -10z"/>
<path d="M553 733 l-23 -4 0 -219 c0 -250 -6 -234 96 -233 141 3 251 147 216
281 -34 131 -152 202 -289 175z m216 -70 c12 -10 24 -35 28 -55 5 -32 1 -41
-25 -68 -34 -33 -59 -37 -101 -15 -32 16 -41 33 -41 76 0 65 88 104 139 62z"/>
<path d="M475 190 c-18 -20 -17 -20 46 -19 l64 0 -40 19 c-51 24 -49 24 -70 0z"/>
</g>
</svg>
